<svg xmlns:dc="http://purl.org/dc/elements/1.1/" xmlns:cc="http://creativecommons.org/ns#" xmlns:rdf="http://www.w3.org/1999/02/22-rdf-syntax-ns#" xmlns:svg="http://www.w3.org/2000/svg" xmlns="http://www.w3.org/2000/svg" xmlns:sodipodi="http://sodipodi.sourceforge.net/DTD/sodipodi-0.dtd" xmlns:inkscape="http://www.inkscape.org/namespaces/inkscape" version="1.1" x="0px" y="0px" viewBox="0 0 48 60" style="enable-background:new 0 0 48 48;" xml:space="preserve"><style type="text/css">
	.st0{fill:#FFFFFF;}
	.st1{fill:url(#SVGID_1_);}
	.st2{fill:url(#SVGID_2_);}
	.st3{fill:url(#SVGID_3_);}
	.st4{fill:url(#SVGID_4_);}
	.st5{fill:url(#SVGID_5_);}
	.st6{fill:url(#SVGID_6_);}
	.st7{fill:url(#SVGID_7_);}
	.st8{fill:url(#SVGID_8_);}
	.st9{fill:url(#SVGID_9_);}
	.st10{fill:url(#SVGID_10_);}
	.st11{fill:url(#SVGID_11_);}
	.st12{fill:url(#SVGID_12_);}
	.st13{fill:url(#SVGID_13_);}
	.st14{fill:url(#SVGID_14_);}
	.st15{fill:url(#SVGID_15_);}
	.st16{fill:url(#SVGID_16_);}
	.st17{fill:url(#SVGID_17_);}
	.st18{fill:url(#SVGID_18_);}
	.st19{fill:url(#SVGID_19_);}
	.st20{fill:url(#SVGID_20_);}
	.st21{fill:url(#SVGID_21_);}
	.st22{fill:url(#SVGID_22_);}
	.st23{fill:url(#SVGID_23_);}
	.st24{fill:url(#SVGID_24_);}
	.st25{fill:url(#SVGID_25_);}
	.st26{fill:url(#SVGID_26_);}
	.st27{fill:url(#SVGID_27_);}
	.st28{fill:url(#SVGID_28_);}
	.st29{fill:url(#SVGID_29_);}
	.st30{fill:url(#SVGID_30_);}
	.st31{fill:url(#SVGID_31_);}
	.st32{fill:url(#SVGID_32_);}
	.st33{fill:url(#SVGID_33_);}
	.st34{fill:url(#SVGID_34_);}
	.st35{fill:url(#SVGID_35_);}
	.st36{fill:url(#SVGID_36_);}
	.st37{fill:url(#SVGID_37_);}
	.st38{fill:url(#SVGID_38_);}
	.st39{fill:url(#SVGID_39_);}
	.st40{fill:url(#SVGID_40_);}
	.st41{fill:url(#SVGID_41_);}
	.st42{fill:url(#SVGID_42_);}
	.st43{fill:url(#SVGID_43_);}
	.st44{fill:url(#SVGID_44_);}
	.st45{fill:url(#SVGID_45_);}
	.st46{fill:url(#SVGID_46_);}
	.st47{fill:url(#SVGID_47_);}
</style><path style="" d="M 10 0 C 4.477 0 0 4.477 0 10 L 0 38 C 0 43.523 4.477 48 10 48 L 38 48 C 43.523 48 48 43.523 48 38 L 48 10 C 48 4.477 43.523 0 38 0 L 10 0 z M 15.5 11 C 17.804 11 19.696219 12.758 19.949219 15 L 30.0625 15 L 31.535156 11.314453 C 31.611156 11.125453 31.795 11 32 11 L 34.5 11 C 34.776 11 35 11.224 35 11.5 C 35 11.776 34.776 12 34.5 12 L 32.337891 12 L 31.138672 15 L 34.5 15 C 34.776 15 35 15.224 35 15.5 L 35 18.033203 C 35 19.130203 34.298906 20.088969 33.253906 20.417969 L 28 22.076172 L 28 27 C 28 28.483 26.916 29.709219 25.5 29.949219 L 25.5 36.146484 L 31.646484 38.037109 C 31.883484 38.110109 32.031141 38.344844 31.994141 38.589844 C 31.957141 38.834844 31.748 39.015625 31.5 39.015625 L 18.5 39.015625 C 18.252 39.015625 18.042859 38.834844 18.005859 38.589844 C 17.969859 38.345844 18.117516 38.110109 18.353516 38.037109 L 24.5 36.146484 L 24.5 29.949219 C 23.084 29.710219 22 28.483 22 27 L 22 22.076172 L 16.746094 20.417969 C 16.437094 20.319969 16.163828 20.16375 15.923828 19.96875 C 15.782828 19.98275 15.642 20 15.5 20 C 13.019 20 11 17.981 11 15.5 C 11 13.019 13.019 11 15.5 11 z M 15.5 12 C 13.57 12 12 13.57 12 15.5 C 12 17.323 13.4065 18.80775 15.1875 18.96875 C 15.0705 18.67775 15 18.362203 15 18.033203 L 15 16.707031 L 14.439453 17.267578 C 14.341453 17.364578 14.213938 17.414062 14.085938 17.414062 C 13.957936 17.414062 13.830422 17.365578 13.732422 17.267578 C 13.537422 17.072578 13.537422 16.755547 13.732422 16.560547 L 14.292969 16 L 13.5 16 C 13.224 16 13 15.776 13 15.5 C 13 15.224 13.224 15 13.5 15 L 14.292969 15 L 13.732422 14.439453 C 13.537422 14.244453 13.537422 13.927422 13.732422 13.732422 C 13.927422 13.537422 14.244453 13.537422 14.439453 13.732422 L 15 14.292969 L 15 13.5 C 15 13.224 15.224 13 15.5 13 C 15.776 13 16 13.224 16 13.5 L 16 14.292969 L 16.560547 13.732422 C 16.755547 13.537422 17.072578 13.537422 17.267578 13.732422 C 17.462578 13.927422 17.462578 14.244453 17.267578 14.439453 L 16.707031 15 L 18.949219 15 C 18.703219 13.31 17.255 12 15.5 12 z M 16 16 L 16 18.033203 C 16 18.137203 16.028828 18.234031 16.048828 18.332031 L 33.951172 18.332031 C 33.971172 18.234031 34 18.137203 34 18.033203 L 34 16 L 16 16 z M 16.785156 19.333984 C 16.870156 19.380984 16.952828 19.434844 17.048828 19.464844 L 22.650391 21.234375 C 22.858391 21.300375 23 21.492938 23 21.710938 L 23 27.001953 C 23 28.104953 23.897 29.001953 25 29.001953 C 26.103 29.001953 27 28.104953 27 27.001953 L 27 21.710938 C 27 21.491937 27.141609 21.300375 27.349609 21.234375 L 32.951172 19.464844 C 33.047172 19.434844 33.129844 19.380984 33.214844 19.333984 L 16.785156 19.333984 z M 23.380859 19.833984 A 0.5 0.5 0 0 1 23.880859 20.333984 A 0.5 0.5 0 0 1 23.380859 20.833984 A 0.5 0.5 0 0 1 22.880859 20.333984 A 0.5 0.5 0 0 1 23.380859 19.833984 z M 25.880859 21.333984 A 0.5 0.5 0 0 1 26.380859 21.833984 A 0.5 0.5 0 0 1 25.880859 22.333984 A 0.5 0.5 0 0 1 25.380859 21.833984 A 0.5 0.5 0 0 1 25.880859 21.333984 z M 23.880859 23.333984 A 0.5 0.5 0 0 1 24.380859 23.833984 A 0.5 0.5 0 0 1 23.880859 24.333984 A 0.5 0.5 0 0 1 23.380859 23.833984 A 0.5 0.5 0 0 1 23.880859 23.333984 z M 25.880859 25.333984 A 0.5 0.5 0 0 1 26.380859 25.833984 A 0.5 0.5 0 0 1 25.880859 26.333984 A 0.5 0.5 0 0 1 25.380859 25.833984 A 0.5 0.5 0 0 1 25.880859 25.333984 z M 24.380859 26.833984 A 0.5 0.5 0 0 1 24.880859 27.333984 A 0.5 0.5 0 0 1 24.380859 27.833984 A 0.5 0.5 0 0 1 23.880859 27.333984 A 0.5 0.5 0 0 1 24.380859 26.833984 z M 25 37.039062 L 21.824219 38.015625 L 28.175781 38.015625 L 25 37.039062 z " fill="#000000" stroke="none"/></svg>